<svg id="Layer_1" enable-background="new 0 0 512 512" height="512" viewBox="0 0 512 512" width="512" xmlns="http://www.w3.org/2000/svg"><g><g><g><g><g><path d="m256 404.979c-47.061 0-93.419-7.859-137.787-23.358-17.673-6.174-29.546-22.751-29.546-41.249v-168.744c0-18.499 11.874-35.075 29.546-41.249 44.369-15.499 90.727-23.358 137.787-23.358s93.419 7.859 137.788 23.358c17.673 6.174 29.546 22.751 29.546 41.249v168.744c0 18.499-11.874 35.076-29.546 41.249-44.369 15.499-90.727 23.358-137.788 23.358z" fill="#fff6db"/><path d="m393.788 130.379c-44.369-15.499-90.727-23.358-137.788-23.358-6.683 0-13.349.177-20 .493 40.184 1.911 79.719 9.567 117.788 22.865 17.672 6.174 29.546 22.751 29.546 41.25v168.744c0 18.499-11.874 35.076-29.546 41.249-38.068 13.298-77.603 20.954-117.788 22.865 6.651.316 13.317.493 20 .493 47.061 0 93.419-7.859 137.788-23.358 17.672-6.173 29.546-22.75 29.546-41.249v-168.745c0-18.499-11.874-35.075-29.546-41.249z" fill="#ffeebd"/><path d="m256 376.559c-43.807 0-86.959-7.315-128.259-21.742-6.224-2.174-10.406-7.979-10.406-14.445v-168.744c0-6.465 4.182-12.27 10.406-14.444 41.3-14.427 84.452-21.742 128.259-21.742s86.959 7.315 128.259 21.742c6.224 2.174 10.406 7.979 10.406 14.444v168.744c0 6.466-4.182 12.271-10.406 14.445-41.3 14.427-84.452 21.742-128.259 21.742z" fill="#cff5ff"/><path d="m384.259 157.184c-41.3-14.427-84.452-21.742-128.259-21.742-5.01 0-10.009.108-15 .299 38.651 1.479 76.682 8.666 113.259 21.443 6.224 2.174 10.406 7.979 10.406 14.444v168.744c0 6.466-4.182 12.271-10.406 14.445-36.577 12.777-74.608 19.964-113.259 21.443 4.991.191 9.99.299 15 .299 43.807 0 86.959-7.315 128.259-21.742 6.224-2.174 10.406-7.979 10.406-14.445v-168.744c0-6.465-4.182-12.27-10.406-14.444z" fill="#b8f0ff"/></g></g></g></g><g fill="#060606"><path d="m130.214 164.264c5.557-1.941 11.468-3.841 17.57-5.648 9.297-2.754 5.04-17.137-4.259-14.383-6.332 1.875-12.474 3.85-18.258 5.87-9.23 3.225-15.432 11.875-15.432 21.525v168.744c0 9.65 6.202 18.301 15.432 21.525 42.097 14.706 86.081 22.162 130.732 22.162s88.636-7.456 130.732-22.162c9.23-3.225 15.432-11.875 15.432-21.525v-168.744c0-9.65-6.202-18.3-15.432-21.525-42.097-14.706-86.081-22.162-130.732-22.162-24.546 0-49.197 2.294-73.267 6.818-9.53 1.792-6.76 16.526 2.771 14.742 23.158-4.354 46.876-6.561 70.496-6.561 42.963 0 85.283 7.174 125.785 21.323 3.218 1.124 5.379 4.083 5.379 7.364v31.586l-90.059-23.807c-26.633-6.7-54.79-6.7-81.492.018l-90.778 23.756v-31.553c.001-3.28 2.163-6.239 5.38-7.363zm256.951 129.685-93.718 24.775c-24.24 6.099-49.865 6.098-74.035.018l-94.576-24.75v-30.492h262.329zm-5.38 53.787c-40.502 14.149-82.822 21.323-125.785 21.323s-85.283-7.174-125.785-21.323c-3.218-1.124-5.379-4.083-5.379-7.364v-30.875l90.848 23.774c26.602 6.693 54.911 6.669 81.51-.022l89.971-23.784v30.907c0 3.28-2.162 6.24-5.38 7.364zm-162.443-153.782c24.24-6.098 49.865-6.097 74.017-.022l93.805 24.798v29.77h-262.329v-29.814z"/><path d="m430.372 164.872c-2.546-18.877-15.607-35.109-34.111-41.574-45.167-15.777-92.358-23.777-140.261-23.777s-95.094 8-140.261 23.778c-18.503 6.464-31.565 22.697-34.111 41.574-45.508 2.932-81.628 40.527-81.628 86.327v9.601c0 45.799 36.12 83.394 81.628 86.328 2.546 18.877 15.607 35.109 34.111 41.574 45.167 15.778 92.357 23.778 140.261 23.778 32.87 0 65.683-3.806 97.528-11.313 9.439-2.224 5.997-16.828-3.441-14.6-30.718 7.241-62.374 10.912-94.086 10.912-46.215 0-91.741-7.718-135.314-22.939-14.666-5.124-24.52-18.854-24.52-34.168v-168.745c0-15.314 9.854-29.045 24.52-34.168 43.573-15.221 89.1-22.939 135.314-22.939s91.741 7.718 135.314 22.939c14.666 5.124 24.52 18.854 24.52 34.168v168.744c0 17.041-11.715 29.904-27.254 35.095-10.164 3.482-6.391 17.883 4.75 14.228 19.256-6.428 34.267-21.995 37.042-42.567 45.507-2.933 81.627-40.528 81.627-86.328v-9.6c0-45.8-36.12-83.395-81.628-86.328zm-415.372 95.928v-9.6c0-37.372 29.158-68.121 66.166-71.239v152.078c-37.008-3.117-66.166-33.866-66.166-71.239zm482 0c0 37.372-29.158 68.121-66.166 71.239v-152.078c37.008 3.117 66.166 33.866 66.166 71.239z"/></g></g></svg>